<?xml version="1.0" encoding="utf-8"?>
<!-- Generator: Adobe Illustrator 24.0.3, SVG Export Plug-In . SVG Version: 6.00 Build 0)  -->
<svg version="1.1" id="Layer_1" xmlns="http://www.w3.org/2000/svg" xmlns:xlink="http://www.w3.org/1999/xlink" x="0px" y="0px"
	 viewBox="0 0 100 100" style="enable-background:new 0 0 100 100;" xml:space="preserve">
<style type="text/css">
	.st0{fill:#FF34C9;}
</style>
<g>
	<path class="st0" d="M77.6,12.9c1.2,1.1,1.9,2.6,2.3,4c0.4-0.3,0.8-0.5,1.2-0.7c1-1.9,0.7-4.3-1-5.9c-2-1.9-5.2-1.9-7.1,0.1
		l-0.2,0.2C74.6,10.9,76.3,11.6,77.6,12.9z"/>
	<path class="st0" d="M48.9,26.9c0.4,0.9,0.7,1.9,0.8,3.1l16.5-16.9c0.6-0.6,1.4-1.1,2.1-1.5c1-1.9,0.7-4.4-0.9-6
		c-2-1.9-5.2-1.9-7.1,0.1L44.7,21.6C47,23.9,47.8,24.6,48.9,26.9z"/>
	<path class="st0" d="M10,66.6c-0.1-8.9,3.2-17.2,9.4-23.6L38,24c0.7-2,0.5-4.1-0.1-5.3c-0.8-1.8-1.3-2.3-3.5-4.4L13.5,35.7
		C2.9,46.5,2.3,63.3,11.2,74.9C10.5,72.2,10.1,69.5,10,66.6z"/>
	<path class="st0" d="M21.7,45.2l20.9-21.4c2.2,2.2,2.7,2.6,3.5,4.4c0.8,1.8,1,5.4-1.6,8L32.6,48.5c-0.5,0.5-0.4,1.2,0,1.7
		c0.5,0.5,1.2,0.5,1.7,0l34-34.9c1.9-2,5.1-2.1,7.1-0.1c2,1.9,2,5.2,0.1,7.1L50.9,47.6c-0.5,0.5-0.4,1.2,0,1.7
		c0.5,0.5,1.2,0.5,1.7,0L81.1,20c2-2,5.1-2,7.1-0.1c2,1.9,2,5.1,0.1,7.1L59.9,56.3c-0.5,0.5-0.4,1.2,0,1.7c0.5,0.5,1.2,0.4,1.7,0
		l24.6-25.3c1.9-2,5.1-2.1,7.1-0.1c2,1.9,2,5.2,0.1,7.2L68.8,65c-0.5,0.5-0.4,1.2,0,1.7c0.5,0.5,1.2,0.5,1.7,0l14.5-15
		c2-2,5.2-2,7.2-0.1c2,2,2,5.1,0.1,7.2L64.7,87.1C53.2,99,34.1,99.3,22.2,87.7C10.3,76.1,10.1,57.1,21.7,45.2"/>
</g>
</svg>
